<?xml version="1.0" standalone="no"?>
<!DOCTYPE svg PUBLIC "-//W3C//DTD SVG 20010904//EN"
 "http://www.w3.org/TR/2001/REC-SVG-20010904/DTD/svg10.dtd">
<svg version="1.0" xmlns="http://www.w3.org/2000/svg"
 width="630.000000pt" height="159.000000pt" viewBox="0 0 630.000000 159.000000"
 preserveAspectRatio="xMidYMid meet">
<metadata>
Created by potrace 1.16, written by Peter Selinger 2001-2019
</metadata>
<g transform="translate(0.000000,159.000000) scale(0.100000,-0.100000)"
fill="#000000" stroke="none">
<path d="M257 1556 c-66 -14 -111 -43 -115 -75 -7 -46 101 -182 216 -274 l65
-51 -31 -8 c-45 -12 -55 -37 -36 -85 9 -21 25 -48 36 -59 19 -21 19 -22 1 -35
-45 -33 -70 -101 -40 -112 16 -6 16 -6 -85 -56 -88 -44 -210 -137 -242 -186
-27 -41 -14 -70 49 -110 114 -74 351 -131 505 -123 53 3 98 0 120 -7 65 -23
132 -27 183 -11 45 13 51 13 93 -6 63 -27 151 -29 188 -3 15 11 46 30 69 41
l41 22 62 -67 c113 -121 228 -159 306 -99 33 25 44 28 144 30 l109 3 5 105 c5
97 7 108 35 147 17 24 34 41 38 40 4 -1 50 -67 101 -147 l93 -145 91 -3 c61
-2 92 1 92 8 0 6 -61 108 -135 227 -81 130 -131 221 -126 227 49 63 251 345
251 350 0 3 -40 6 -89 6 l-89 0 -128 -172 -129 -172 -3 172 -2 172 -73 0 c-39
0 -77 -4 -84 -8 -8 -5 -11 -112 -10 -406 1 -220 1 -392 -1 -383 -2 9 -11 17
-21 17 -14 0 -17 9 -17 50 0 64 -23 95 -96 135 -30 17 -63 36 -72 44 -9 7 -16
10 -16 7 0 -19 24 -46 57 -67 59 -35 93 -70 93 -97 0 -23 -3 -24 -42 -19 l-43
6 24 -20 c13 -10 29 -19 37 -19 21 0 25 -17 8 -34 -16 -17 -56 -13 -82 7 -26
20 -23 -3 3 -27 l28 -26 -38 0 c-59 0 -117 34 -189 111 -48 50 -70 82 -78 114
-13 47 -28 43 -28 -8 0 -22 -7 -31 -35 -43 -19 -7 -52 -14 -74 -14 -47 0 -62
-15 -24 -24 18 -5 23 -10 15 -18 -20 -20 -124 -4 -194 30 -42 20 -81 32 -105
31 l-38 -1 38 -15 c20 -9 37 -20 37 -24 0 -13 -114 -11 -147 3 -16 6 -89 12
-168 13 -122 2 -156 6 -259 34 -119 32 -220 76 -252 113 -18 19 -16 21 53 86
49 47 101 83 169 119 137 70 137 70 157 28 34 -71 101 -27 89 58 l-5 32 -11
-40 c-14 -50 -41 -59 -51 -17 -4 19 0 44 10 67 8 21 13 40 10 43 -2 3 -22 -7
-44 -23 -68 -46 -68 -22 0 44 62 61 63 63 33 58 -23 -5 -36 -1 -48 12 -16 17
-15 19 14 24 42 9 37 23 -10 31 -65 10 -46 35 28 37 20 1 48 4 62 9 l25 7 -29
12 c-84 34 -257 193 -312 287 -26 44 -27 47 -10 60 69 50 353 45 596 -12 117
-27 310 -114 310 -139 0 -11 13 -15 53 -15 57 0 135 -31 175 -70 29 -27 24
-42 -16 -55 -18 -5 -32 -12 -32 -15 0 -3 18 -15 39 -27 21 -12 53 -44 71 -70
l32 -48 -6 43 -6 42 82 0 c46 0 120 -9 165 -19 78 -17 120 -14 98 8 -20 18
-170 41 -275 41 -114 0 -134 8 -106 39 22 24 20 34 -10 70 -36 43 -98 77 -166
91 -31 6 -91 31 -134 55 -128 73 -273 114 -490 140 -152 18 -228 18 -307 1z
m1623 -661 c0 -102 4 -185 8 -185 5 0 70 83 146 185 l138 185 69 0 69 0 -125
-170 c-69 -94 -125 -172 -125 -175 0 -3 60 -102 134 -221 l134 -215 -75 3 -76
3 -96 150 c-53 83 -101 150 -108 150 -6 0 -29 -23 -52 -52 l-41 -52 0 -101 0
-100 -65 0 -65 0 0 390 0 390 65 0 65 0 0 -185z"/>
<path d="M5493 1471 c-27 -13 -43 -27 -43 -38 -1 -11 -24 -33 -60 -55 -107
-67 -168 -182 -157 -298 5 -59 38 -148 60 -162 7 -4 -3 -5 -20 -2 -51 10 -136
-36 -167 -89 -46 -80 -43 -179 8 -236 27 -30 85 -56 161 -71 68 -14 95 -32 88
-60 -12 -44 -120 -45 -203 -1 -24 12 -46 19 -50 14 -4 -4 -16 -34 -28 -67 -26
-69 -23 -74 51 -106 64 -28 158 -36 224 -21 119 29 193 156 151 258 -6 15 -12
30 -13 33 -9 38 -70 80 -124 85 -14 1 -33 5 -41 8 -92 31 -95 33 -98 60 -5 41
31 53 121 40 79 -11 94 -9 52 7 -105 40 -195 17 -195 -49 0 -39 14 -48 115
-73 96 -23 139 -51 161 -105 38 -91 -4 -189 -101 -234 -72 -34 -230 -18 -283
29 l-20 17 20 52 20 51 35 -20 c50 -30 176 -38 203 -13 27 25 26 71 -2 89 -13
7 -54 19 -91 26 -77 14 -121 40 -155 90 -32 48 -28 130 10 188 53 80 187 108
303 65 56 -21 59 -33 28 -100 -17 -36 -21 -38 -63 -38 -39 0 -45 -3 -54 -26
-5 -15 -5 -35 -1 -45 7 -16 9 -13 14 16 l6 35 70 2 c174 4 335 16 335 25 0 8
-265 2 -296 -7 -7 -2 -4 13 7 34 10 21 21 49 24 64 7 25 3 29 -41 48 -26 12
-71 24 -98 28 -49 6 -52 8 -76 56 -35 69 -36 190 -2 253 13 23 27 40 32 37 5
-3 7 0 4 8 -6 17 62 79 118 108 31 16 38 16 48 4 6 -8 31 -21 54 -30 39 -15
46 -15 79 -1 21 8 37 20 37 26 0 7 -6 8 -19 0 -37 -19 -97 -12 -130 16 -17 14
-31 29 -31 34 0 4 16 15 36 25 41 19 113 16 140 -6 9 -7 30 -12 46 -10 125 13
322 -109 388 -241 29 -59 32 -84 8 -60 -7 7 -19 12 -27 12 -9 0 0 -15 24 -40
34 -34 39 -46 39 -87 1 -39 -2 -48 -18 -51 -44 -9 -96 47 -96 103 0 14 -4 25
-10 25 -17 0 -11 -63 10 -97 13 -22 34 -37 70 -50 50 -18 50 -18 44 -53 -11
-58 -31 -99 -64 -126 -16 -14 -30 -34 -30 -43 0 -10 -11 -28 -25 -41 -20 -19
-27 -21 -40 -10 -23 19 -19 -2 16 -83 25 -56 29 -74 20 -89 -6 -10 -11 -20
-11 -23 0 -14 105 53 162 102 72 62 111 69 116 21 5 -43 -61 -107 -158 -152
-73 -34 -99 -56 -68 -56 6 0 1 -11 -11 -24 -26 -27 -104 -46 -195 -46 -61 0
-61 0 -62 -30 -3 -89 -108 -79 -143 13 -28 73 -5 138 54 153 32 8 32 24 0 24
-20 0 -25 5 -25 25 0 31 -20 41 -100 50 -83 9 -71 -10 14 -22 54 -7 60 -10 67
-37 7 -23 3 -35 -16 -58 -27 -32 -31 -70 -14 -132 16 -58 58 -96 107 -96 43 0
65 18 76 63 6 25 10 27 59 27 83 0 168 24 194 55 13 14 23 31 23 38 0 7 32 27
70 46 108 52 167 130 141 187 -17 38 -60 32 -117 -17 -57 -49 -123 -94 -129
-87 -2 2 -15 28 -28 58 l-24 53 35 31 c30 26 36 28 55 17 39 -25 76 -31 92
-15 20 20 19 30 -6 53 -13 12 -17 21 -10 26 18 11 13 53 -8 60 -18 5 -18 9 -5
52 16 54 18 169 3 232 -40 175 -206 326 -385 352 -38 6 -82 15 -99 21 -56 20
-117 20 -162 -1z"/>
<path d="M306 1409 c73 -77 296 -189 345 -174 26 9 33 42 15 70 -16 24 -16 25
11 25 16 -1 46 -9 68 -20 46 -22 54 -19 47 15 -6 34 21 33 72 -1 33 -22 36
-23 27 -6 -32 59 -117 94 -128 52 -6 -23 -5 -23 -54 -8 -29 8 -45 8 -64 0 -27
-13 -34 -49 -13 -70 22 -22 -2 -26 -57 -8 -66 20 -171 75 -238 122 -59 42 -70
43 -31 3z"/>
<path d="M4730 976 l0 -75 -37 -3 -38 -3 0 -70 0 -70 37 -3 36 -3 4 -167 c3
-152 5 -171 27 -215 37 -75 103 -106 196 -93 24 4 54 15 66 25 l22 18 -18 66
c-17 62 -34 82 -50 57 -11 -18 -53 -11 -69 12 -13 18 -16 52 -16 160 l0 138
60 0 60 0 0 75 0 75 -60 0 -60 0 0 75 0 75 -80 0 -80 0 0 -74z m140 -21 l0
-75 60 0 60 0 0 -60 0 -60 -61 0 -60 0 3 -155 c4 -180 8 -191 82 -188 l44 1
12 -45 c16 -65 1 -78 -88 -78 -53 0 -73 5 -98 22 -59 42 -69 78 -72 270 l-3
172 -37 3 -37 3 -3 58 -3 57 41 0 40 0 0 75 0 75 60 0 60 0 0 -75z"/>
<path d="M928 1005 c-55 -37 -93 -122 -93 -207 0 -61 3 -70 29 -95 l28 -28
-16 32 c-20 39 -22 83 -4 65 46 -46 138 39 138 126 0 34 -34 82 -58 82 -14 1
-13 4 6 19 44 38 23 42 -30 6z"/>
<path d="M1367 968 c-31 -48 -34 -76 -11 -124 38 -80 260 -182 348 -160 40 10
31 31 -23 58 -49 24 -53 21 -22 -16 15 -18 14 -18 -19 -11 -45 9 -176 69 -217
101 -46 35 -60 85 -38 134 25 56 14 67 -18 18z"/>
<path d="M2505 901 c-95 -43 -156 -144 -163 -274 -6 -97 16 -184 62 -247 65
-90 197 -131 302 -96 56 18 124 70 124 93 0 12 -34 63 -71 107 -4 5 -22 -3
-39 -17 -63 -53 -154 -43 -197 22 -13 19 -23 38 -23 42 0 5 82 10 183 11 l182
3 -1 70 c-1 183 -105 305 -258 305 -37 0 -77 -8 -101 -19z m145 -2 c118 -27
200 -149 200 -296 l0 -43 -186 0 -186 0 5 -30 c20 -100 138 -147 232 -92 20
13 38 22 40 20 1 -2 14 -20 30 -41 l28 -38 -23 -24 c-68 -73 -205 -86 -298
-29 -51 32 -106 104 -122 162 -15 55 -12 183 5 233 38 108 114 171 225 188 3
0 25 -4 50 -10z"/>
<path d="M2553 775 c-33 -14 -73 -77 -73 -115 0 -20 4 -21 128 -18 l127 3 -4
25 c-5 41 -30 80 -64 100 -37 23 -70 25 -114 5z m123 -39 c19 -19 34 -43 34
-55 0 -20 -5 -21 -105 -21 -67 0 -105 4 -105 10 0 6 7 24 15 40 36 69 106 81
161 26z"/>
<path d="M3075 901 c-142 -64 -209 -298 -133 -463 61 -132 204 -198 334 -154
55 18 124 69 124 92 0 14 -67 114 -77 114 -3 0 -18 -11 -34 -25 -39 -32 -90
-41 -137 -23 -36 14 -87 72 -76 89 3 5 86 9 186 9 l181 0 -6 78 c-7 97 -19
138 -60 198 -63 94 -199 132 -302 85z m213 -28 c80 -45 132 -148 132 -260 l0
-53 -185 0 c-170 0 -185 -1 -185 -17 0 -32 45 -98 75 -112 45 -22 115 -19 159
7 20 12 39 22 40 22 2 0 16 -18 31 -40 l28 -41 -28 -29 c-43 -45 -103 -64
-180 -58 -160 13 -254 142 -243 332 7 102 34 161 100 221 76 69 167 79 256 28z"/>
<path d="M3121 773 c-22 -11 -40 -31 -52 -57 -35 -77 -36 -76 111 -76 97 0
130 3 130 13 -1 31 -42 98 -72 117 -40 24 -72 25 -117 3z m117 -28 c17 -14 35
-39 41 -55 l10 -30 -110 0 c-69 0 -109 4 -109 10 0 24 32 70 58 84 40 22 77
19 110 -9z"/>
<path d="M3527 914 c-4 -4 -7 -198 -7 -431 l0 -424 78 3 77 3 3 126 3 126 46
-24 c70 -35 147 -28 216 20 134 93 161 360 52 517 -59 86 -193 117 -282 66
l-42 -24 -3 21 c-3 20 -10 22 -68 25 -36 2 -69 0 -73 -4z m389 -39 c81 -47
126 -144 127 -275 2 -103 -19 -170 -70 -230 -79 -92 -210 -106 -277 -31 -11
11 -23 21 -27 21 -5 0 -10 -64 -11 -142 l-3 -143 -60 0 -60 0 0 410 0 410 58
3 57 3 0 -36 c0 -40 9 -44 36 -14 55 61 147 71 230 24z"/>
<path d="M3741 763 c-56 -29 -75 -64 -79 -144 -7 -123 41 -199 126 -199 81 0
132 69 132 176 -1 134 -88 215 -179 167z m104 -25 c37 -29 55 -76 55 -144 0
-97 -41 -154 -110 -154 -71 0 -111 55 -112 154 -1 129 89 206 167 144z"/>
<path d="M4261 894 c-104 -52 -156 -162 -149 -318 5 -111 36 -185 101 -241
104 -89 299 -80 368 16 l21 30 -38 54 c-20 30 -39 55 -41 55 -3 0 -19 -11 -37
-25 -42 -32 -85 -40 -130 -25 -35 11 -86 64 -86 88 0 9 50 12 180 12 l180 0 6
26 c10 39 -13 159 -40 212 -67 131 -207 179 -335 116z m195 -5 c41 -13 108
-84 133 -140 11 -25 24 -78 27 -117 l7 -72 -187 0 -186 0 0 -22 c0 -31 33 -83
65 -104 39 -25 122 -23 167 4 l36 22 32 -40 33 -41 -23 -24 c-62 -66 -183 -84
-275 -41 -118 55 -179 191 -154 346 29 183 164 279 325 229z"/>
<path d="M4323 775 c-38 -16 -73 -68 -73 -107 l0 -28 125 0 c119 0 125 1 125
20 0 39 -29 90 -62 110 -38 23 -70 25 -115 5z m123 -41 c19 -19 34 -44 34 -55
0 -18 -8 -19 -105 -19 -97 0 -105 1 -105 19 0 11 15 36 34 55 27 29 41 36 71
36 30 0 44 -7 71 -36z"/>
<path d="M355 691 c-33 -9 -73 -24 -90 -33 -42 -23 -118 -79 -113 -84 3 -2 29
9 59 25 54 30 161 64 233 76 35 6 38 5 27 -9 -7 -8 -11 -27 -9 -43 2 -23 8
-29 36 -31 20 -2 32 -9 32 -18 0 -8 9 -23 20 -34 16 -16 24 -18 48 -9 16 6 40
21 53 35 l23 25 -37 -16 c-57 -23 -67 -20 -67 21 l0 36 -40 -7 c-44 -7 -55 7
-19 25 13 7 19 19 17 33 -3 19 -10 22 -58 24 -30 1 -82 -6 -115 -16z"/>
</g>
</svg>
